G04 #@! TF.GenerationSoftware,KiCad,Pcbnew,(5.1.9)-1*
G04 #@! TF.CreationDate,2026-02-04T18:39:53+09:00*
G04 #@! TF.ProjectId,MZ-1500_SD+NRF,4d5a2d31-3530-4305-9f53-442b4e52462e,rev?*
G04 #@! TF.SameCoordinates,PX4395450PY98005a8*
G04 #@! TF.FileFunction,Legend,Top*
G04 #@! TF.FilePolarity,Positive*
%FSLAX46Y46*%
G04 Gerber Fmt 4.6, Leading zero omitted, Abs format (unit mm)*
G04 Created by KiCad (PCBNEW (5.1.9)-1) date 2026-02-04 18:39:53*
%MOMM*%
%LPD*%
G01*
G04 APERTURE LIST*
%ADD10C,0.500000*%
%ADD11C,0.150000*%
%ADD12C,0.120000*%
G04 APERTURE END LIST*
D10*
X58476190Y30142858D02*
X58476190Y33142858D01*
X59142857Y31000000D01*
X59809523Y33142858D01*
X59809523Y30142858D01*
X60571428Y33142858D02*
X61904761Y33142858D01*
X60571428Y30142858D01*
X61904761Y30142858D01*
X62666666Y31285715D02*
X64190476Y31285715D01*
X66190476Y30142858D02*
X65047619Y30142858D01*
X65619047Y30142858D02*
X65619047Y33142858D01*
X65428571Y32714286D01*
X65238095Y32428572D01*
X65047619Y32285715D01*
X68000000Y33142858D02*
X67047619Y33142858D01*
X66952380Y31714286D01*
X67047619Y31857143D01*
X67238095Y32000000D01*
X67714285Y32000000D01*
X67904761Y31857143D01*
X68000000Y31714286D01*
X68095238Y31428572D01*
X68095238Y30714286D01*
X68000000Y30428572D01*
X67904761Y30285715D01*
X67714285Y30142858D01*
X67238095Y30142858D01*
X67047619Y30285715D01*
X66952380Y30428572D01*
X69333333Y33142858D02*
X69523809Y33142858D01*
X69714285Y33000000D01*
X69809523Y32857143D01*
X69904761Y32571429D01*
X70000000Y32000000D01*
X70000000Y31285715D01*
X69904761Y30714286D01*
X69809523Y30428572D01*
X69714285Y30285715D01*
X69523809Y30142858D01*
X69333333Y30142858D01*
X69142857Y30285715D01*
X69047619Y30428572D01*
X68952380Y30714286D01*
X68857142Y31285715D01*
X68857142Y32000000D01*
X68952380Y32571429D01*
X69047619Y32857143D01*
X69142857Y33000000D01*
X69333333Y33142858D01*
X71238095Y33142858D02*
X71428571Y33142858D01*
X71619047Y33000000D01*
X71714285Y32857143D01*
X71809523Y32571429D01*
X71904761Y32000000D01*
X71904761Y31285715D01*
X71809523Y30714286D01*
X71714285Y30428572D01*
X71619047Y30285715D01*
X71428571Y30142858D01*
X71238095Y30142858D01*
X71047619Y30285715D01*
X70952380Y30428572D01*
X70857142Y30714286D01*
X70761904Y31285715D01*
X70761904Y32000000D01*
X70857142Y32571429D01*
X70952380Y32857143D01*
X71047619Y33000000D01*
X71238095Y33142858D01*
X72285714Y29857143D02*
X73809523Y29857143D01*
X74190476Y30285715D02*
X74476190Y30142858D01*
X74952380Y30142858D01*
X75142857Y30285715D01*
X75238095Y30428572D01*
X75333333Y30714286D01*
X75333333Y31000000D01*
X75238095Y31285715D01*
X75142857Y31428572D01*
X74952380Y31571429D01*
X74571428Y31714286D01*
X74380952Y31857143D01*
X74285714Y32000000D01*
X74190476Y32285715D01*
X74190476Y32571429D01*
X74285714Y32857143D01*
X74380952Y33000000D01*
X74571428Y33142858D01*
X75047619Y33142858D01*
X75333333Y33000000D01*
X76190476Y30142858D02*
X76190476Y33142858D01*
X76666666Y33142858D01*
X76952380Y33000000D01*
X77142857Y32714286D01*
X77238095Y32428572D01*
X77333333Y31857143D01*
X77333333Y31428572D01*
X77238095Y30857143D01*
X77142857Y30571429D01*
X76952380Y30285715D01*
X76666666Y30142858D01*
X76190476Y30142858D01*
X78190476Y31285715D02*
X79714285Y31285715D01*
X78952380Y30142858D02*
X78952380Y32428572D01*
X80666666Y30142858D02*
X80666666Y33142858D01*
X81809523Y30142858D01*
X81809523Y33142858D01*
X82761904Y30142858D02*
X82761904Y32142858D01*
X82761904Y33142858D02*
X82666666Y33000000D01*
X82761904Y32857143D01*
X82857142Y33000000D01*
X82761904Y33142858D01*
X82761904Y32857143D01*
X83619047Y30285715D02*
X83809523Y30142858D01*
X84190476Y30142858D01*
X84380952Y30285715D01*
X84476190Y30571429D01*
X84476190Y30714286D01*
X84380952Y31000000D01*
X84190476Y31142858D01*
X83904761Y31142858D01*
X83714285Y31285715D01*
X83619047Y31571429D01*
X83619047Y31714286D01*
X83714285Y32000000D01*
X83904761Y32142858D01*
X84190476Y32142858D01*
X84380952Y32000000D01*
X86095238Y30285715D02*
X85904761Y30142858D01*
X85523809Y30142858D01*
X85333333Y30285715D01*
X85238095Y30571429D01*
X85238095Y31714286D01*
X85333333Y32000000D01*
X85523809Y32142858D01*
X85904761Y32142858D01*
X86095238Y32000000D01*
X86190476Y31714286D01*
X86190476Y31428572D01*
X85238095Y31142858D01*
X88190476Y30142858D02*
X87523809Y31571429D01*
X87047619Y30142858D02*
X87047619Y33142858D01*
X87809523Y33142858D01*
X88000000Y33000000D01*
X88095238Y32857143D01*
X88190476Y32571429D01*
X88190476Y32142858D01*
X88095238Y31857143D01*
X88000000Y31714286D01*
X87809523Y31571429D01*
X87047619Y31571429D01*
X89904761Y30142858D02*
X89904761Y31714286D01*
X89809523Y32000000D01*
X89619047Y32142858D01*
X89238095Y32142858D01*
X89047619Y32000000D01*
X89904761Y30285715D02*
X89714285Y30142858D01*
X89238095Y30142858D01*
X89047619Y30285715D01*
X88952380Y30571429D01*
X88952380Y30857143D01*
X89047619Y31142858D01*
X89238095Y31285715D01*
X89714285Y31285715D01*
X89904761Y31428572D01*
X90857142Y30142858D02*
X90857142Y32142858D01*
X90857142Y31857143D02*
X90952380Y32000000D01*
X91142857Y32142858D01*
X91428571Y32142858D01*
X91619047Y32000000D01*
X91714285Y31714286D01*
X91714285Y30142858D01*
X91714285Y31714286D02*
X91809523Y32000000D01*
X92000000Y32142858D01*
X92285714Y32142858D01*
X92476190Y32000000D01*
X92571428Y31714286D01*
X92571428Y30142858D01*
X94190476Y31714286D02*
X93523809Y31714286D01*
X93523809Y30142858D02*
X93523809Y33142858D01*
X94476190Y33142858D01*
X95238095Y30142858D02*
X95238095Y32142858D01*
X95238095Y33142858D02*
X95142857Y33000000D01*
X95238095Y32857143D01*
X95333333Y33000000D01*
X95238095Y33142858D01*
X95238095Y32857143D01*
X96476190Y30142858D02*
X96285714Y30285715D01*
X96190476Y30571429D01*
X96190476Y33142858D01*
X98000000Y30285715D02*
X97809523Y30142858D01*
X97428571Y30142858D01*
X97238095Y30285715D01*
X97142857Y30571429D01*
X97142857Y31714286D01*
X97238095Y32000000D01*
X97428571Y32142858D01*
X97809523Y32142858D01*
X98000000Y32000000D01*
X98095238Y31714286D01*
X98095238Y31428572D01*
X97142857Y31142858D01*
X101619047Y30142858D02*
X100952380Y31571429D01*
X100476190Y30142858D02*
X100476190Y33142858D01*
X101238095Y33142858D01*
X101428571Y33000000D01*
X101523809Y32857143D01*
X101619047Y32571429D01*
X101619047Y32142858D01*
X101523809Y31857143D01*
X101428571Y31714286D01*
X101238095Y31571429D01*
X100476190Y31571429D01*
X103238095Y30285715D02*
X103047619Y30142858D01*
X102666666Y30142858D01*
X102476190Y30285715D01*
X102380952Y30571429D01*
X102380952Y31714286D01*
X102476190Y32000000D01*
X102666666Y32142858D01*
X103047619Y32142858D01*
X103238095Y32000000D01*
X103333333Y31714286D01*
X103333333Y31428572D01*
X102380952Y31142858D01*
X104000000Y32142858D02*
X104476190Y30142858D01*
X104952380Y32142858D01*
X106761904Y30142858D02*
X105619047Y30142858D01*
X106190476Y30142858D02*
X106190476Y33142858D01*
X106000000Y32714286D01*
X105809523Y32428572D01*
X105619047Y32285715D01*
X107619047Y30428572D02*
X107714285Y30285715D01*
X107619047Y30142858D01*
X107523809Y30285715D01*
X107619047Y30428572D01*
X107619047Y30142858D01*
X108952380Y33142858D02*
X109142857Y33142858D01*
X109333333Y33000000D01*
X109428571Y32857143D01*
X109523809Y32571429D01*
X109619047Y32000000D01*
X109619047Y31285715D01*
X109523809Y30714286D01*
X109428571Y30428572D01*
X109333333Y30285715D01*
X109142857Y30142858D01*
X108952380Y30142858D01*
X108761904Y30285715D01*
X108666666Y30428572D01*
X108571428Y30714286D01*
X108476190Y31285715D01*
X108476190Y32000000D01*
X108571428Y32571429D01*
X108666666Y32857143D01*
X108761904Y33000000D01*
X108952380Y33142858D01*
D11*
X93399285Y15377620D02*
X94018333Y15377620D01*
X93685000Y14996667D01*
X93827857Y14996667D01*
X93923095Y14949048D01*
X93970714Y14901429D01*
X94018333Y14806191D01*
X94018333Y14568096D01*
X93970714Y14472858D01*
X93923095Y14425239D01*
X93827857Y14377620D01*
X93542142Y14377620D01*
X93446904Y14425239D01*
X93399285Y14472858D01*
X94351666Y15377620D02*
X94970714Y15377620D01*
X94637380Y14996667D01*
X94780238Y14996667D01*
X94875476Y14949048D01*
X94923095Y14901429D01*
X94970714Y14806191D01*
X94970714Y14568096D01*
X94923095Y14472858D01*
X94875476Y14425239D01*
X94780238Y14377620D01*
X94494523Y14377620D01*
X94399285Y14425239D01*
X94351666Y14472858D01*
X95589761Y15377620D02*
X95685000Y15377620D01*
X95780238Y15330000D01*
X95827857Y15282381D01*
X95875476Y15187143D01*
X95923095Y14996667D01*
X95923095Y14758572D01*
X95875476Y14568096D01*
X95827857Y14472858D01*
X95780238Y14425239D01*
X95685000Y14377620D01*
X95589761Y14377620D01*
X95494523Y14425239D01*
X95446904Y14472858D01*
X95399285Y14568096D01*
X95351666Y14758572D01*
X95351666Y14996667D01*
X95399285Y15187143D01*
X95446904Y15282381D01*
X95494523Y15330000D01*
X95589761Y15377620D01*
X91399285Y21377620D02*
X92018333Y21377620D01*
X91685000Y20996667D01*
X91827857Y20996667D01*
X91923095Y20949048D01*
X91970714Y20901429D01*
X92018333Y20806191D01*
X92018333Y20568096D01*
X91970714Y20472858D01*
X91923095Y20425239D01*
X91827857Y20377620D01*
X91542142Y20377620D01*
X91446904Y20425239D01*
X91399285Y20472858D01*
X92351666Y21377620D02*
X92970714Y21377620D01*
X92637380Y20996667D01*
X92780238Y20996667D01*
X92875476Y20949048D01*
X92923095Y20901429D01*
X92970714Y20806191D01*
X92970714Y20568096D01*
X92923095Y20472858D01*
X92875476Y20425239D01*
X92780238Y20377620D01*
X92494523Y20377620D01*
X92399285Y20425239D01*
X92351666Y20472858D01*
X93589761Y21377620D02*
X93685000Y21377620D01*
X93780238Y21330000D01*
X93827857Y21282381D01*
X93875476Y21187143D01*
X93923095Y20996667D01*
X93923095Y20758572D01*
X93875476Y20568096D01*
X93827857Y20472858D01*
X93780238Y20425239D01*
X93685000Y20377620D01*
X93589761Y20377620D01*
X93494523Y20425239D01*
X93446904Y20472858D01*
X93399285Y20568096D01*
X93351666Y20758572D01*
X93351666Y20996667D01*
X93399285Y21187143D01*
X93446904Y21282381D01*
X93494523Y21330000D01*
X93589761Y21377620D01*
X88899285Y26877620D02*
X89518333Y26877620D01*
X89185000Y26496667D01*
X89327857Y26496667D01*
X89423095Y26449048D01*
X89470714Y26401429D01*
X89518333Y26306191D01*
X89518333Y26068096D01*
X89470714Y25972858D01*
X89423095Y25925239D01*
X89327857Y25877620D01*
X89042142Y25877620D01*
X88946904Y25925239D01*
X88899285Y25972858D01*
X89851666Y26877620D02*
X90470714Y26877620D01*
X90137380Y26496667D01*
X90280238Y26496667D01*
X90375476Y26449048D01*
X90423095Y26401429D01*
X90470714Y26306191D01*
X90470714Y26068096D01*
X90423095Y25972858D01*
X90375476Y25925239D01*
X90280238Y25877620D01*
X89994523Y25877620D01*
X89899285Y25925239D01*
X89851666Y25972858D01*
X91089761Y26877620D02*
X91185000Y26877620D01*
X91280238Y26830000D01*
X91327857Y26782381D01*
X91375476Y26687143D01*
X91423095Y26496667D01*
X91423095Y26258572D01*
X91375476Y26068096D01*
X91327857Y25972858D01*
X91280238Y25925239D01*
X91185000Y25877620D01*
X91089761Y25877620D01*
X90994523Y25925239D01*
X90946904Y25972858D01*
X90899285Y26068096D01*
X90851666Y26258572D01*
X90851666Y26496667D01*
X90899285Y26687143D01*
X90946904Y26782381D01*
X90994523Y26830000D01*
X91089761Y26877620D01*
X80589761Y36377620D02*
X80256428Y36853810D01*
X80018333Y36377620D02*
X80018333Y37377620D01*
X80399285Y37377620D01*
X80494523Y37330000D01*
X80542142Y37282381D01*
X80589761Y37187143D01*
X80589761Y37044286D01*
X80542142Y36949048D01*
X80494523Y36901429D01*
X80399285Y36853810D01*
X80018333Y36853810D01*
X81018333Y36377620D02*
X81018333Y37377620D01*
X81399285Y37377620D01*
X81494523Y37330000D01*
X81542142Y37282381D01*
X81589761Y37187143D01*
X81589761Y37044286D01*
X81542142Y36949048D01*
X81494523Y36901429D01*
X81399285Y36853810D01*
X81018333Y36853810D01*
X81970714Y37282381D02*
X82018333Y37330000D01*
X82113571Y37377620D01*
X82351666Y37377620D01*
X82446904Y37330000D01*
X82494523Y37282381D01*
X82542142Y37187143D01*
X82542142Y37091905D01*
X82494523Y36949048D01*
X81923095Y36377620D01*
X82542142Y36377620D01*
X82875476Y37377620D02*
X83494523Y37377620D01*
X83161190Y36996667D01*
X83304047Y36996667D01*
X83399285Y36949048D01*
X83446904Y36901429D01*
X83494523Y36806191D01*
X83494523Y36568096D01*
X83446904Y36472858D01*
X83399285Y36425239D01*
X83304047Y36377620D01*
X83018333Y36377620D01*
X82923095Y36425239D01*
X82875476Y36472858D01*
X84399285Y37377620D02*
X83923095Y37377620D01*
X83875476Y36901429D01*
X83923095Y36949048D01*
X84018333Y36996667D01*
X84256428Y36996667D01*
X84351666Y36949048D01*
X84399285Y36901429D01*
X84446904Y36806191D01*
X84446904Y36568096D01*
X84399285Y36472858D01*
X84351666Y36425239D01*
X84256428Y36377620D01*
X84018333Y36377620D01*
X83923095Y36425239D01*
X83875476Y36472858D01*
X85065952Y37377620D02*
X85161190Y37377620D01*
X85256428Y37330000D01*
X85304047Y37282381D01*
X85351666Y37187143D01*
X85399285Y36996667D01*
X85399285Y36758572D01*
X85351666Y36568096D01*
X85304047Y36472858D01*
X85256428Y36425239D01*
X85161190Y36377620D01*
X85065952Y36377620D01*
X84970714Y36425239D01*
X84923095Y36472858D01*
X84875476Y36568096D01*
X84827857Y36758572D01*
X84827857Y36996667D01*
X84875476Y37187143D01*
X84923095Y37282381D01*
X84970714Y37330000D01*
X85065952Y37377620D01*
X86161190Y36901429D02*
X86304047Y36853810D01*
X86351666Y36806191D01*
X86399285Y36710953D01*
X86399285Y36568096D01*
X86351666Y36472858D01*
X86304047Y36425239D01*
X86208809Y36377620D01*
X85827857Y36377620D01*
X85827857Y37377620D01*
X86161190Y37377620D01*
X86256428Y37330000D01*
X86304047Y37282381D01*
X86351666Y37187143D01*
X86351666Y37091905D01*
X86304047Y36996667D01*
X86256428Y36949048D01*
X86161190Y36901429D01*
X85827857Y36901429D01*
X60833095Y41140000D02*
X60737857Y41187620D01*
X60595000Y41187620D01*
X60452142Y41140000D01*
X60356904Y41044762D01*
X60309285Y40949524D01*
X60261666Y40759048D01*
X60261666Y40616191D01*
X60309285Y40425715D01*
X60356904Y40330477D01*
X60452142Y40235239D01*
X60595000Y40187620D01*
X60690238Y40187620D01*
X60833095Y40235239D01*
X60880714Y40282858D01*
X60880714Y40616191D01*
X60690238Y40616191D01*
X61309285Y40187620D02*
X61309285Y41187620D01*
X61880714Y40187620D01*
X61880714Y41187620D01*
X62356904Y40187620D02*
X62356904Y41187620D01*
X62595000Y41187620D01*
X62737857Y41140000D01*
X62833095Y41044762D01*
X62880714Y40949524D01*
X62928333Y40759048D01*
X62928333Y40616191D01*
X62880714Y40425715D01*
X62833095Y40330477D01*
X62737857Y40235239D01*
X62595000Y40187620D01*
X62356904Y40187620D01*
X105394285Y40568572D02*
X106156190Y40568572D01*
X105775238Y40187620D02*
X105775238Y40949524D01*
X107108571Y41187620D02*
X106632380Y41187620D01*
X106584761Y40711429D01*
X106632380Y40759048D01*
X106727619Y40806667D01*
X106965714Y40806667D01*
X107060952Y40759048D01*
X107108571Y40711429D01*
X107156190Y40616191D01*
X107156190Y40378096D01*
X107108571Y40282858D01*
X107060952Y40235239D01*
X106965714Y40187620D01*
X106727619Y40187620D01*
X106632380Y40235239D01*
X106584761Y40282858D01*
X107441904Y41187620D02*
X107775238Y40187620D01*
X108108571Y41187620D01*
X18947142Y71667620D02*
X19613809Y71667620D01*
X19185238Y70667620D01*
X20423333Y71334286D02*
X20423333Y70667620D01*
X20185238Y71715239D02*
X19947142Y71000953D01*
X20566190Y71000953D01*
X21423333Y70667620D02*
X20947142Y70667620D01*
X20947142Y71667620D01*
X21709047Y70715239D02*
X21851904Y70667620D01*
X22090000Y70667620D01*
X22185238Y70715239D01*
X22232857Y70762858D01*
X22280476Y70858096D01*
X22280476Y70953334D01*
X22232857Y71048572D01*
X22185238Y71096191D01*
X22090000Y71143810D01*
X21899523Y71191429D01*
X21804285Y71239048D01*
X21756666Y71286667D01*
X21709047Y71381905D01*
X21709047Y71477143D01*
X21756666Y71572381D01*
X21804285Y71620000D01*
X21899523Y71667620D01*
X22137619Y71667620D01*
X22280476Y71620000D01*
X22899523Y71667620D02*
X22994761Y71667620D01*
X23090000Y71620000D01*
X23137619Y71572381D01*
X23185238Y71477143D01*
X23232857Y71286667D01*
X23232857Y71048572D01*
X23185238Y70858096D01*
X23137619Y70762858D01*
X23090000Y70715239D01*
X22994761Y70667620D01*
X22899523Y70667620D01*
X22804285Y70715239D01*
X22756666Y70762858D01*
X22709047Y70858096D01*
X22661428Y71048572D01*
X22661428Y71286667D01*
X22709047Y71477143D01*
X22756666Y71572381D01*
X22804285Y71620000D01*
X22899523Y71667620D01*
X24090000Y71334286D02*
X24090000Y70667620D01*
X23851904Y71715239D02*
X23613809Y71000953D01*
X24232857Y71000953D01*
X36148095Y41457620D02*
X36148095Y42124286D01*
X36148095Y42029048D02*
X36195714Y42076667D01*
X36290952Y42124286D01*
X36433809Y42124286D01*
X36529047Y42076667D01*
X36576666Y41981429D01*
X36576666Y41457620D01*
X36576666Y41981429D02*
X36624285Y42076667D01*
X36719523Y42124286D01*
X36862380Y42124286D01*
X36957619Y42076667D01*
X37005238Y41981429D01*
X37005238Y41457620D01*
X37481428Y41457620D02*
X37481428Y42124286D01*
X37481428Y42457620D02*
X37433809Y42410000D01*
X37481428Y42362381D01*
X37529047Y42410000D01*
X37481428Y42457620D01*
X37481428Y42362381D01*
X38386190Y41505239D02*
X38290952Y41457620D01*
X38100476Y41457620D01*
X38005238Y41505239D01*
X37957619Y41552858D01*
X37910000Y41648096D01*
X37910000Y41933810D01*
X37957619Y42029048D01*
X38005238Y42076667D01*
X38100476Y42124286D01*
X38290952Y42124286D01*
X38386190Y42076667D01*
X38814761Y41457620D02*
X38814761Y42124286D01*
X38814761Y41933810D02*
X38862380Y42029048D01*
X38910000Y42076667D01*
X39005238Y42124286D01*
X39100476Y42124286D01*
X39576666Y41457620D02*
X39481428Y41505239D01*
X39433809Y41552858D01*
X39386190Y41648096D01*
X39386190Y41933810D01*
X39433809Y42029048D01*
X39481428Y42076667D01*
X39576666Y42124286D01*
X39719523Y42124286D01*
X39814761Y42076667D01*
X39862380Y42029048D01*
X39910000Y41933810D01*
X39910000Y41648096D01*
X39862380Y41552858D01*
X39814761Y41505239D01*
X39719523Y41457620D01*
X39576666Y41457620D01*
X41052857Y41505239D02*
X41195714Y41457620D01*
X41433809Y41457620D01*
X41529047Y41505239D01*
X41576666Y41552858D01*
X41624285Y41648096D01*
X41624285Y41743334D01*
X41576666Y41838572D01*
X41529047Y41886191D01*
X41433809Y41933810D01*
X41243333Y41981429D01*
X41148095Y42029048D01*
X41100476Y42076667D01*
X41052857Y42171905D01*
X41052857Y42267143D01*
X41100476Y42362381D01*
X41148095Y42410000D01*
X41243333Y42457620D01*
X41481428Y42457620D01*
X41624285Y42410000D01*
X42052857Y41457620D02*
X42052857Y42457620D01*
X42290952Y42457620D01*
X42433809Y42410000D01*
X42529047Y42314762D01*
X42576666Y42219524D01*
X42624285Y42029048D01*
X42624285Y41886191D01*
X42576666Y41695715D01*
X42529047Y41600477D01*
X42433809Y41505239D01*
X42290952Y41457620D01*
X42052857Y41457620D01*
X43052857Y41838572D02*
X43814761Y41838572D01*
X44862380Y41552858D02*
X44814761Y41505239D01*
X44671904Y41457620D01*
X44576666Y41457620D01*
X44433809Y41505239D01*
X44338571Y41600477D01*
X44290952Y41695715D01*
X44243333Y41886191D01*
X44243333Y42029048D01*
X44290952Y42219524D01*
X44338571Y42314762D01*
X44433809Y42410000D01*
X44576666Y42457620D01*
X44671904Y42457620D01*
X44814761Y42410000D01*
X44862380Y42362381D01*
X45243333Y41743334D02*
X45719523Y41743334D01*
X45148095Y41457620D02*
X45481428Y42457620D01*
X45814761Y41457620D01*
X46719523Y41457620D02*
X46386190Y41933810D01*
X46148095Y41457620D02*
X46148095Y42457620D01*
X46529047Y42457620D01*
X46624285Y42410000D01*
X46671904Y42362381D01*
X46719523Y42267143D01*
X46719523Y42124286D01*
X46671904Y42029048D01*
X46624285Y41981429D01*
X46529047Y41933810D01*
X46148095Y41933810D01*
X47148095Y41457620D02*
X47148095Y42457620D01*
X47386190Y42457620D01*
X47529047Y42410000D01*
X47624285Y42314762D01*
X47671904Y42219524D01*
X47719523Y42029048D01*
X47719523Y41886191D01*
X47671904Y41695715D01*
X47624285Y41600477D01*
X47529047Y41505239D01*
X47386190Y41457620D01*
X47148095Y41457620D01*
X10375238Y41743334D02*
X10851428Y41743334D01*
X10280000Y41457620D02*
X10613333Y42457620D01*
X10946666Y41457620D01*
X11280000Y41457620D02*
X11280000Y42124286D01*
X11280000Y41933810D02*
X11327619Y42029048D01*
X11375238Y42076667D01*
X11470476Y42124286D01*
X11565714Y42124286D01*
X12327619Y41457620D02*
X12327619Y42457620D01*
X12327619Y41505239D02*
X12232380Y41457620D01*
X12041904Y41457620D01*
X11946666Y41505239D01*
X11899047Y41552858D01*
X11851428Y41648096D01*
X11851428Y41933810D01*
X11899047Y42029048D01*
X11946666Y42076667D01*
X12041904Y42124286D01*
X12232380Y42124286D01*
X12327619Y42076667D01*
X13232380Y42124286D02*
X13232380Y41457620D01*
X12803809Y42124286D02*
X12803809Y41600477D01*
X12851428Y41505239D01*
X12946666Y41457620D01*
X13089523Y41457620D01*
X13184761Y41505239D01*
X13232380Y41552858D01*
X13708571Y41457620D02*
X13708571Y42124286D01*
X13708571Y42457620D02*
X13660952Y42410000D01*
X13708571Y42362381D01*
X13756190Y42410000D01*
X13708571Y42457620D01*
X13708571Y42362381D01*
X14184761Y42124286D02*
X14184761Y41457620D01*
X14184761Y42029048D02*
X14232380Y42076667D01*
X14327619Y42124286D01*
X14470476Y42124286D01*
X14565714Y42076667D01*
X14613333Y41981429D01*
X14613333Y41457620D01*
X15232380Y41457620D02*
X15137142Y41505239D01*
X15089523Y41552858D01*
X15041904Y41648096D01*
X15041904Y41933810D01*
X15089523Y42029048D01*
X15137142Y42076667D01*
X15232380Y42124286D01*
X15375238Y42124286D01*
X15470476Y42076667D01*
X15518095Y42029048D01*
X15565714Y41933810D01*
X15565714Y41648096D01*
X15518095Y41552858D01*
X15470476Y41505239D01*
X15375238Y41457620D01*
X15232380Y41457620D01*
X16756190Y41457620D02*
X16756190Y42457620D01*
X17137142Y42457620D01*
X17232380Y42410000D01*
X17280000Y42362381D01*
X17327619Y42267143D01*
X17327619Y42124286D01*
X17280000Y42029048D01*
X17232380Y41981429D01*
X17137142Y41933810D01*
X16756190Y41933810D01*
X17756190Y41457620D02*
X17756190Y42124286D01*
X17756190Y41933810D02*
X17803809Y42029048D01*
X17851428Y42076667D01*
X17946666Y42124286D01*
X18041904Y42124286D01*
X18518095Y41457620D02*
X18422857Y41505239D01*
X18375238Y41552858D01*
X18327619Y41648096D01*
X18327619Y41933810D01*
X18375238Y42029048D01*
X18422857Y42076667D01*
X18518095Y42124286D01*
X18660952Y42124286D01*
X18756190Y42076667D01*
X18803809Y42029048D01*
X18851428Y41933810D01*
X18851428Y41648096D01*
X18803809Y41552858D01*
X18756190Y41505239D01*
X18660952Y41457620D01*
X18518095Y41457620D01*
X20041904Y41457620D02*
X20041904Y42457620D01*
X20375238Y41743334D01*
X20708571Y42457620D01*
X20708571Y41457620D01*
X21184761Y41457620D02*
X21184761Y42124286D01*
X21184761Y42457620D02*
X21137142Y42410000D01*
X21184761Y42362381D01*
X21232380Y42410000D01*
X21184761Y42457620D01*
X21184761Y42362381D01*
X21660952Y42124286D02*
X21660952Y41457620D01*
X21660952Y42029048D02*
X21708571Y42076667D01*
X21803809Y42124286D01*
X21946666Y42124286D01*
X22041904Y42076667D01*
X22089523Y41981429D01*
X22089523Y41457620D01*
X22565714Y41457620D02*
X22565714Y42124286D01*
X22565714Y42457620D02*
X22518095Y42410000D01*
X22565714Y42362381D01*
X22613333Y42410000D01*
X22565714Y42457620D01*
X22565714Y42362381D01*
X24280000Y42457620D02*
X23803809Y42457620D01*
X23756190Y41981429D01*
X23803809Y42029048D01*
X23899047Y42076667D01*
X24137142Y42076667D01*
X24232380Y42029048D01*
X24280000Y41981429D01*
X24327619Y41886191D01*
X24327619Y41648096D01*
X24280000Y41552858D01*
X24232380Y41505239D01*
X24137142Y41457620D01*
X23899047Y41457620D01*
X23803809Y41505239D01*
X23756190Y41552858D01*
X24613333Y42457620D02*
X24946666Y41457620D01*
X25280000Y42457620D01*
X28956190Y48379048D02*
X28860952Y48426667D01*
X28813333Y48474286D01*
X28765714Y48569524D01*
X28765714Y48617143D01*
X28813333Y48712381D01*
X28860952Y48760000D01*
X28956190Y48807620D01*
X29146666Y48807620D01*
X29241904Y48760000D01*
X29289523Y48712381D01*
X29337142Y48617143D01*
X29337142Y48569524D01*
X29289523Y48474286D01*
X29241904Y48426667D01*
X29146666Y48379048D01*
X28956190Y48379048D01*
X28860952Y48331429D01*
X28813333Y48283810D01*
X28765714Y48188572D01*
X28765714Y47998096D01*
X28813333Y47902858D01*
X28860952Y47855239D01*
X28956190Y47807620D01*
X29146666Y47807620D01*
X29241904Y47855239D01*
X29289523Y47902858D01*
X29337142Y47998096D01*
X29337142Y48188572D01*
X29289523Y48283810D01*
X29241904Y48331429D01*
X29146666Y48379048D01*
X29718095Y48712381D02*
X29765714Y48760000D01*
X29860952Y48807620D01*
X30099047Y48807620D01*
X30194285Y48760000D01*
X30241904Y48712381D01*
X30289523Y48617143D01*
X30289523Y48521905D01*
X30241904Y48379048D01*
X29670476Y47807620D01*
X30289523Y47807620D01*
X31194285Y48807620D02*
X30718095Y48807620D01*
X30670476Y48331429D01*
X30718095Y48379048D01*
X30813333Y48426667D01*
X31051428Y48426667D01*
X31146666Y48379048D01*
X31194285Y48331429D01*
X31241904Y48236191D01*
X31241904Y47998096D01*
X31194285Y47902858D01*
X31146666Y47855239D01*
X31051428Y47807620D01*
X30813333Y47807620D01*
X30718095Y47855239D01*
X30670476Y47902858D01*
X32146666Y48807620D02*
X31670476Y48807620D01*
X31622857Y48331429D01*
X31670476Y48379048D01*
X31765714Y48426667D01*
X32003809Y48426667D01*
X32099047Y48379048D01*
X32146666Y48331429D01*
X32194285Y48236191D01*
X32194285Y47998096D01*
X32146666Y47902858D01*
X32099047Y47855239D01*
X32003809Y47807620D01*
X31765714Y47807620D01*
X31670476Y47855239D01*
X31622857Y47902858D01*
X41807142Y71667620D02*
X42473809Y71667620D01*
X42045238Y70667620D01*
X43283333Y71334286D02*
X43283333Y70667620D01*
X43045238Y71715239D02*
X42807142Y71000953D01*
X43426190Y71000953D01*
X44283333Y70667620D02*
X43807142Y70667620D01*
X43807142Y71667620D01*
X44569047Y70715239D02*
X44711904Y70667620D01*
X44950000Y70667620D01*
X45045238Y70715239D01*
X45092857Y70762858D01*
X45140476Y70858096D01*
X45140476Y70953334D01*
X45092857Y71048572D01*
X45045238Y71096191D01*
X44950000Y71143810D01*
X44759523Y71191429D01*
X44664285Y71239048D01*
X44616666Y71286667D01*
X44569047Y71381905D01*
X44569047Y71477143D01*
X44616666Y71572381D01*
X44664285Y71620000D01*
X44759523Y71667620D01*
X44997619Y71667620D01*
X45140476Y71620000D01*
X45473809Y71667620D02*
X46092857Y71667620D01*
X45759523Y71286667D01*
X45902380Y71286667D01*
X45997619Y71239048D01*
X46045238Y71191429D01*
X46092857Y71096191D01*
X46092857Y70858096D01*
X46045238Y70762858D01*
X45997619Y70715239D01*
X45902380Y70667620D01*
X45616666Y70667620D01*
X45521428Y70715239D01*
X45473809Y70762858D01*
X46711904Y71667620D02*
X46807142Y71667620D01*
X46902380Y71620000D01*
X46950000Y71572381D01*
X46997619Y71477143D01*
X47045238Y71286667D01*
X47045238Y71048572D01*
X46997619Y70858096D01*
X46950000Y70762858D01*
X46902380Y70715239D01*
X46807142Y70667620D01*
X46711904Y70667620D01*
X46616666Y70715239D01*
X46569047Y70762858D01*
X46521428Y70858096D01*
X46473809Y71048572D01*
X46473809Y71286667D01*
X46521428Y71477143D01*
X46569047Y71572381D01*
X46616666Y71620000D01*
X46711904Y71667620D01*
X57412142Y55157620D02*
X57507380Y55157620D01*
X57602619Y55110000D01*
X57650238Y55062381D01*
X57697857Y54967143D01*
X57745476Y54776667D01*
X57745476Y54538572D01*
X57697857Y54348096D01*
X57650238Y54252858D01*
X57602619Y54205239D01*
X57507380Y54157620D01*
X57412142Y54157620D01*
X57316904Y54205239D01*
X57269285Y54252858D01*
X57221666Y54348096D01*
X57174047Y54538572D01*
X57174047Y54776667D01*
X57221666Y54967143D01*
X57269285Y55062381D01*
X57316904Y55110000D01*
X57412142Y55157620D01*
X58174047Y54252858D02*
X58221666Y54205239D01*
X58174047Y54157620D01*
X58126428Y54205239D01*
X58174047Y54252858D01*
X58174047Y54157620D01*
X59174047Y54157620D02*
X58602619Y54157620D01*
X58888333Y54157620D02*
X58888333Y55157620D01*
X58793095Y55014762D01*
X58697857Y54919524D01*
X58602619Y54871905D01*
X60031190Y54824286D02*
X60031190Y54157620D01*
X59602619Y54824286D02*
X59602619Y54300477D01*
X59650238Y54205239D01*
X59745476Y54157620D01*
X59888333Y54157620D01*
X59983571Y54205239D01*
X60031190Y54252858D01*
X60840714Y54681429D02*
X60507380Y54681429D01*
X60507380Y54157620D02*
X60507380Y55157620D01*
X60983571Y55157620D01*
X30107142Y81827620D02*
X30202380Y81827620D01*
X30297619Y81780000D01*
X30345238Y81732381D01*
X30392857Y81637143D01*
X30440476Y81446667D01*
X30440476Y81208572D01*
X30392857Y81018096D01*
X30345238Y80922858D01*
X30297619Y80875239D01*
X30202380Y80827620D01*
X30107142Y80827620D01*
X30011904Y80875239D01*
X29964285Y80922858D01*
X29916666Y81018096D01*
X29869047Y81208572D01*
X29869047Y81446667D01*
X29916666Y81637143D01*
X29964285Y81732381D01*
X30011904Y81780000D01*
X30107142Y81827620D01*
X30869047Y80922858D02*
X30916666Y80875239D01*
X30869047Y80827620D01*
X30821428Y80875239D01*
X30869047Y80922858D01*
X30869047Y80827620D01*
X31869047Y80827620D02*
X31297619Y80827620D01*
X31583333Y80827620D02*
X31583333Y81827620D01*
X31488095Y81684762D01*
X31392857Y81589524D01*
X31297619Y81541905D01*
X32726190Y81494286D02*
X32726190Y80827620D01*
X32297619Y81494286D02*
X32297619Y80970477D01*
X32345238Y80875239D01*
X32440476Y80827620D01*
X32583333Y80827620D01*
X32678571Y80875239D01*
X32726190Y80922858D01*
X33535714Y81351429D02*
X33202380Y81351429D01*
X33202380Y80827620D02*
X33202380Y81827620D01*
X33678571Y81827620D01*
X4707142Y81827620D02*
X4802380Y81827620D01*
X4897619Y81780000D01*
X4945238Y81732381D01*
X4992857Y81637143D01*
X5040476Y81446667D01*
X5040476Y81208572D01*
X4992857Y81018096D01*
X4945238Y80922858D01*
X4897619Y80875239D01*
X4802380Y80827620D01*
X4707142Y80827620D01*
X4611904Y80875239D01*
X4564285Y80922858D01*
X4516666Y81018096D01*
X4469047Y81208572D01*
X4469047Y81446667D01*
X4516666Y81637143D01*
X4564285Y81732381D01*
X4611904Y81780000D01*
X4707142Y81827620D01*
X5469047Y80922858D02*
X5516666Y80875239D01*
X5469047Y80827620D01*
X5421428Y80875239D01*
X5469047Y80922858D01*
X5469047Y80827620D01*
X6469047Y80827620D02*
X5897619Y80827620D01*
X6183333Y80827620D02*
X6183333Y81827620D01*
X6088095Y81684762D01*
X5992857Y81589524D01*
X5897619Y81541905D01*
X7326190Y81494286D02*
X7326190Y80827620D01*
X6897619Y81494286D02*
X6897619Y80970477D01*
X6945238Y80875239D01*
X7040476Y80827620D01*
X7183333Y80827620D01*
X7278571Y80875239D01*
X7326190Y80922858D01*
X8135714Y81351429D02*
X7802380Y81351429D01*
X7802380Y80827620D02*
X7802380Y81827620D01*
X8278571Y81827620D01*
X24487380Y84002620D02*
X23915952Y84002620D01*
X24201666Y84002620D02*
X24201666Y85002620D01*
X24106428Y84859762D01*
X24011190Y84764524D01*
X23915952Y84716905D01*
X25106428Y85002620D02*
X25201666Y85002620D01*
X25296904Y84955000D01*
X25344523Y84907381D01*
X25392142Y84812143D01*
X25439761Y84621667D01*
X25439761Y84383572D01*
X25392142Y84193096D01*
X25344523Y84097858D01*
X25296904Y84050239D01*
X25201666Y84002620D01*
X25106428Y84002620D01*
X25011190Y84050239D01*
X24963571Y84097858D01*
X24915952Y84193096D01*
X24868333Y84383572D01*
X24868333Y84621667D01*
X24915952Y84812143D01*
X24963571Y84907381D01*
X25011190Y84955000D01*
X25106428Y85002620D01*
X26058809Y85002620D02*
X26154047Y85002620D01*
X26249285Y84955000D01*
X26296904Y84907381D01*
X26344523Y84812143D01*
X26392142Y84621667D01*
X26392142Y84383572D01*
X26344523Y84193096D01*
X26296904Y84097858D01*
X26249285Y84050239D01*
X26154047Y84002620D01*
X26058809Y84002620D01*
X25963571Y84050239D01*
X25915952Y84097858D01*
X25868333Y84193096D01*
X25820714Y84383572D01*
X25820714Y84621667D01*
X25868333Y84812143D01*
X25915952Y84907381D01*
X25963571Y84955000D01*
X26058809Y85002620D01*
X27249285Y84669286D02*
X27249285Y84002620D01*
X26820714Y84669286D02*
X26820714Y84145477D01*
X26868333Y84050239D01*
X26963571Y84002620D01*
X27106428Y84002620D01*
X27201666Y84050239D01*
X27249285Y84097858D01*
X28058809Y84526429D02*
X27725476Y84526429D01*
X27725476Y84002620D02*
X27725476Y85002620D01*
X28201666Y85002620D01*
D12*
X7082000Y75370000D02*
X6377000Y75370000D01*
X9117000Y75370000D02*
X8412000Y75370000D01*
X7082000Y79610000D02*
X6377000Y79610000D01*
X9117000Y79610000D02*
X8412000Y79610000D01*
X6377000Y79610000D02*
X6377000Y75370000D01*
X9117000Y79610000D02*
X9117000Y75370000D01*
X34390000Y79610000D02*
X34390000Y75370000D01*
X31650000Y79610000D02*
X31650000Y75370000D01*
X34390000Y79610000D02*
X33685000Y79610000D01*
X32355000Y79610000D02*
X31650000Y79610000D01*
X34390000Y75370000D02*
X33685000Y75370000D01*
X32355000Y75370000D02*
X31650000Y75370000D01*
X59790000Y60560000D02*
X59790000Y56320000D01*
X57050000Y60560000D02*
X57050000Y56320000D01*
X59790000Y60560000D02*
X59085000Y60560000D01*
X57755000Y60560000D02*
X57050000Y60560000D01*
X59790000Y56320000D02*
X59085000Y56320000D01*
X57755000Y56320000D02*
X57050000Y56320000D01*
X45720000Y40700000D02*
X45720000Y38040000D01*
X45720000Y40700000D02*
X32960000Y40700000D01*
X32960000Y40700000D02*
X32960000Y38040000D01*
X45720000Y38040000D02*
X32960000Y38040000D01*
X48320000Y38040000D02*
X46990000Y38040000D01*
X48320000Y39370000D02*
X48320000Y38040000D01*
X35500000Y79720000D02*
X35500000Y78470000D01*
X53400000Y79720000D02*
X35500000Y79720000D01*
X53400000Y75220000D02*
X53400000Y79720000D01*
X35500000Y75220000D02*
X53400000Y75220000D01*
X35500000Y76470000D02*
X35500000Y75220000D01*
X35500000Y78470000D02*
G75*
G02*
X35500000Y76470000I0J-1000000D01*
G01*
X5020000Y57420000D02*
X5020000Y52360000D01*
X5020000Y52360000D02*
X55940000Y52360000D01*
X55940000Y52360000D02*
X55940000Y64480000D01*
X55940000Y64480000D02*
X5020000Y64480000D01*
X5020000Y64480000D02*
X5020000Y59420000D01*
X5020000Y59420000D02*
G75*
G02*
X5020000Y57420000I0J-1000000D01*
G01*
X29150000Y31429000D02*
X29150000Y28769000D01*
X49530000Y31429000D02*
X29150000Y31429000D01*
X49530000Y28769000D02*
X29150000Y28769000D01*
X49530000Y31429000D02*
X49530000Y28769000D01*
X50800000Y31429000D02*
X52130000Y31429000D01*
X52130000Y31429000D02*
X52130000Y30099000D01*
X28780000Y31799000D02*
X28780000Y-1000D01*
X28780000Y-1000D02*
X52480000Y-1000D01*
X52480000Y-1000D02*
X52480000Y31799000D01*
X52480000Y31799000D02*
X28780000Y31799000D01*
X21590000Y12700000D02*
X21590000Y10160000D01*
X21590000Y10160000D02*
X24257000Y10160000D01*
X24257000Y12700000D02*
X24257000Y40767000D01*
X24257000Y7493000D02*
X24257000Y10160000D01*
X8890000Y10160000D02*
X6220000Y10160000D01*
X8890000Y10160000D02*
X8890000Y40767000D01*
X24257000Y40767000D02*
X6220000Y40767000D01*
X21590000Y12700000D02*
X24257000Y12700000D01*
X21590000Y12700000D02*
X21590000Y40767000D01*
X6223000Y40767000D02*
X6223000Y7493000D01*
X6223000Y7493000D02*
X24257000Y7493000D01*
X27493300Y90598475D02*
X26993300Y90598475D01*
X27243300Y90848475D02*
X27243300Y90348475D01*
X26052300Y85442700D02*
X25484300Y85442700D01*
X26286300Y85482700D02*
X25250300Y85482700D01*
X26445300Y85522700D02*
X25091300Y85522700D01*
X26573300Y85562700D02*
X24963300Y85562700D01*
X26683300Y85602700D02*
X24853300Y85602700D01*
X26779300Y85642700D02*
X24757300Y85642700D01*
X26866300Y85682700D02*
X24670300Y85682700D01*
X26946300Y85722700D02*
X24590300Y85722700D01*
X24728300Y85762700D02*
X24517300Y85762700D01*
X27019300Y85762700D02*
X26808300Y85762700D01*
X24728300Y85802700D02*
X24449300Y85802700D01*
X27087300Y85802700D02*
X26808300Y85802700D01*
X24728300Y85842700D02*
X24385300Y85842700D01*
X27151300Y85842700D02*
X26808300Y85842700D01*
X24728300Y85882700D02*
X24325300Y85882700D01*
X27211300Y85882700D02*
X26808300Y85882700D01*
X24728300Y85922700D02*
X24268300Y85922700D01*
X27268300Y85922700D02*
X26808300Y85922700D01*
X24728300Y85962700D02*
X24214300Y85962700D01*
X27322300Y85962700D02*
X26808300Y85962700D01*
X24728300Y86002700D02*
X24163300Y86002700D01*
X27373300Y86002700D02*
X26808300Y86002700D01*
X24728300Y86042700D02*
X24115300Y86042700D01*
X27421300Y86042700D02*
X26808300Y86042700D01*
X24728300Y86082700D02*
X24069300Y86082700D01*
X27467300Y86082700D02*
X26808300Y86082700D01*
X24728300Y86122700D02*
X24025300Y86122700D01*
X27511300Y86122700D02*
X26808300Y86122700D01*
X24728300Y86162700D02*
X23983300Y86162700D01*
X27553300Y86162700D02*
X26808300Y86162700D01*
X24728300Y86202700D02*
X23942300Y86202700D01*
X27594300Y86202700D02*
X26808300Y86202700D01*
X24728300Y86242700D02*
X23904300Y86242700D01*
X27632300Y86242700D02*
X26808300Y86242700D01*
X24728300Y86282700D02*
X23867300Y86282700D01*
X27669300Y86282700D02*
X26808300Y86282700D01*
X24728300Y86322700D02*
X23831300Y86322700D01*
X27705300Y86322700D02*
X26808300Y86322700D01*
X24728300Y86362700D02*
X23797300Y86362700D01*
X27739300Y86362700D02*
X26808300Y86362700D01*
X24728300Y86402700D02*
X23764300Y86402700D01*
X27772300Y86402700D02*
X26808300Y86402700D01*
X24728300Y86442700D02*
X23733300Y86442700D01*
X27803300Y86442700D02*
X26808300Y86442700D01*
X24728300Y86482700D02*
X23703300Y86482700D01*
X27833300Y86482700D02*
X26808300Y86482700D01*
X24728300Y86522700D02*
X23673300Y86522700D01*
X27863300Y86522700D02*
X26808300Y86522700D01*
X24728300Y86562700D02*
X23646300Y86562700D01*
X27890300Y86562700D02*
X26808300Y86562700D01*
X24728300Y86602700D02*
X23619300Y86602700D01*
X27917300Y86602700D02*
X26808300Y86602700D01*
X24728300Y86642700D02*
X23593300Y86642700D01*
X27943300Y86642700D02*
X26808300Y86642700D01*
X24728300Y86682700D02*
X23568300Y86682700D01*
X27968300Y86682700D02*
X26808300Y86682700D01*
X24728300Y86722700D02*
X23544300Y86722700D01*
X27992300Y86722700D02*
X26808300Y86722700D01*
X24728300Y86762700D02*
X23521300Y86762700D01*
X28015300Y86762700D02*
X26808300Y86762700D01*
X24728300Y86802700D02*
X23500300Y86802700D01*
X28036300Y86802700D02*
X26808300Y86802700D01*
X24728300Y86842700D02*
X23478300Y86842700D01*
X28058300Y86842700D02*
X26808300Y86842700D01*
X24728300Y86882700D02*
X23458300Y86882700D01*
X28078300Y86882700D02*
X26808300Y86882700D01*
X24728300Y86922700D02*
X23439300Y86922700D01*
X28097300Y86922700D02*
X26808300Y86922700D01*
X24728300Y86962700D02*
X23420300Y86962700D01*
X28116300Y86962700D02*
X26808300Y86962700D01*
X24728300Y87002700D02*
X23403300Y87002700D01*
X28133300Y87002700D02*
X26808300Y87002700D01*
X24728300Y87042700D02*
X23386300Y87042700D01*
X28150300Y87042700D02*
X26808300Y87042700D01*
X24728300Y87082700D02*
X23370300Y87082700D01*
X28166300Y87082700D02*
X26808300Y87082700D01*
X24728300Y87122700D02*
X23354300Y87122700D01*
X28182300Y87122700D02*
X26808300Y87122700D01*
X24728300Y87162700D02*
X23340300Y87162700D01*
X28196300Y87162700D02*
X26808300Y87162700D01*
X24728300Y87202700D02*
X23326300Y87202700D01*
X28210300Y87202700D02*
X26808300Y87202700D01*
X24728300Y87242700D02*
X23313300Y87242700D01*
X28223300Y87242700D02*
X26808300Y87242700D01*
X24728300Y87282700D02*
X23300300Y87282700D01*
X28236300Y87282700D02*
X26808300Y87282700D01*
X24728300Y87322700D02*
X23288300Y87322700D01*
X28248300Y87322700D02*
X26808300Y87322700D01*
X24728300Y87363700D02*
X23277300Y87363700D01*
X28259300Y87363700D02*
X26808300Y87363700D01*
X24728300Y87403700D02*
X23267300Y87403700D01*
X28269300Y87403700D02*
X26808300Y87403700D01*
X24728300Y87443700D02*
X23257300Y87443700D01*
X28279300Y87443700D02*
X26808300Y87443700D01*
X24728300Y87483700D02*
X23248300Y87483700D01*
X28288300Y87483700D02*
X26808300Y87483700D01*
X24728300Y87523700D02*
X23240300Y87523700D01*
X28296300Y87523700D02*
X26808300Y87523700D01*
X24728300Y87563700D02*
X23232300Y87563700D01*
X28304300Y87563700D02*
X26808300Y87563700D01*
X24728300Y87603700D02*
X23225300Y87603700D01*
X28311300Y87603700D02*
X26808300Y87603700D01*
X24728300Y87643700D02*
X23218300Y87643700D01*
X28318300Y87643700D02*
X26808300Y87643700D01*
X24728300Y87683700D02*
X23212300Y87683700D01*
X28324300Y87683700D02*
X26808300Y87683700D01*
X24728300Y87723700D02*
X23207300Y87723700D01*
X28329300Y87723700D02*
X26808300Y87723700D01*
X24728300Y87763700D02*
X23203300Y87763700D01*
X28333300Y87763700D02*
X26808300Y87763700D01*
X24728300Y87803700D02*
X23199300Y87803700D01*
X28337300Y87803700D02*
X26808300Y87803700D01*
X28341300Y87843700D02*
X23195300Y87843700D01*
X28344300Y87883700D02*
X23192300Y87883700D01*
X28346300Y87923700D02*
X23190300Y87923700D01*
X28347300Y87963700D02*
X23189300Y87963700D01*
X28348300Y88003700D02*
X23188300Y88003700D01*
X28348300Y88043700D02*
X23188300Y88043700D01*
X28388300Y88043700D02*
G75*
G03*
X28388300Y88043700I-2620000J0D01*
G01*
X87630000Y9116325D02*
X87380000Y9549338D01*
X87880000Y9549338D02*
X87630000Y9116325D01*
X87380000Y9549338D02*
X87880000Y9549338D01*
X98800000Y8655000D02*
X98800000Y55000D01*
X67830000Y8655000D02*
X98800000Y8655000D01*
X67830000Y55000D02*
X67830000Y8655000D01*
X94710000Y11330000D02*
X94710000Y11660000D01*
X88170000Y11330000D02*
X94710000Y11330000D01*
X88170000Y11660000D02*
X88170000Y11330000D01*
X94710000Y14070000D02*
X94710000Y13740000D01*
X88170000Y14070000D02*
X94710000Y14070000D01*
X88170000Y13740000D02*
X88170000Y14070000D01*
X83598000Y25170000D02*
X83598000Y25500000D01*
X83598000Y25500000D02*
X90138000Y25500000D01*
X90138000Y25500000D02*
X90138000Y25170000D01*
X83598000Y23090000D02*
X83598000Y22760000D01*
X83598000Y22760000D02*
X90138000Y22760000D01*
X90138000Y22760000D02*
X90138000Y23090000D01*
X92424000Y17045000D02*
X92424000Y17375000D01*
X85884000Y17045000D02*
X92424000Y17045000D01*
X85884000Y17375000D02*
X85884000Y17045000D01*
X92424000Y19785000D02*
X92424000Y19455000D01*
X85884000Y19785000D02*
X92424000Y19785000D01*
X85884000Y19455000D02*
X85884000Y19785000D01*
X10100000Y79720000D02*
X10100000Y78470000D01*
X28000000Y79720000D02*
X10100000Y79720000D01*
X28000000Y75220000D02*
X28000000Y79720000D01*
X10100000Y75220000D02*
X28000000Y75220000D01*
X10100000Y76470000D02*
X10100000Y75220000D01*
X10100000Y78470000D02*
G75*
G02*
X10100000Y76470000I0J-1000000D01*
G01*
X104200000Y39310000D02*
X102870000Y39310000D01*
X104200000Y40640000D02*
X104200000Y39310000D01*
X101600000Y39310000D02*
X99000000Y39310000D01*
X101600000Y41910000D02*
X101600000Y39310000D01*
X104200000Y41910000D02*
X101600000Y41910000D01*
X99000000Y39310000D02*
X99000000Y77530000D01*
X104200000Y41910000D02*
X104200000Y77530000D01*
X104200000Y77530000D02*
X99000000Y77530000D01*
X68640000Y77530000D02*
X63440000Y77530000D01*
X68640000Y41910000D02*
X68640000Y77530000D01*
X63440000Y39310000D02*
X63440000Y77530000D01*
X68640000Y41910000D02*
X66040000Y41910000D01*
X66040000Y41910000D02*
X66040000Y39310000D01*
X66040000Y39310000D02*
X63440000Y39310000D01*
X68640000Y40640000D02*
X68640000Y39310000D01*
X68640000Y39310000D02*
X67310000Y39310000D01*
D11*
X4913333Y77132858D02*
X4865714Y77085239D01*
X4722857Y77037620D01*
X4627619Y77037620D01*
X4484761Y77085239D01*
X4389523Y77180477D01*
X4341904Y77275715D01*
X4294285Y77466191D01*
X4294285Y77609048D01*
X4341904Y77799524D01*
X4389523Y77894762D01*
X4484761Y77990000D01*
X4627619Y78037620D01*
X4722857Y78037620D01*
X4865714Y77990000D01*
X4913333Y77942381D01*
X5865714Y77037620D02*
X5294285Y77037620D01*
X5580000Y77037620D02*
X5580000Y78037620D01*
X5484761Y77894762D01*
X5389523Y77799524D01*
X5294285Y77751905D01*
X30313333Y77112858D02*
X30265714Y77065239D01*
X30122857Y77017620D01*
X30027619Y77017620D01*
X29884761Y77065239D01*
X29789523Y77160477D01*
X29741904Y77255715D01*
X29694285Y77446191D01*
X29694285Y77589048D01*
X29741904Y77779524D01*
X29789523Y77874762D01*
X29884761Y77970000D01*
X30027619Y78017620D01*
X30122857Y78017620D01*
X30265714Y77970000D01*
X30313333Y77922381D01*
X30694285Y77922381D02*
X30741904Y77970000D01*
X30837142Y78017620D01*
X31075238Y78017620D01*
X31170476Y77970000D01*
X31218095Y77922381D01*
X31265714Y77827143D01*
X31265714Y77731905D01*
X31218095Y77589048D01*
X30646666Y77017620D01*
X31265714Y77017620D01*
X58253333Y61872858D02*
X58205714Y61825239D01*
X58062857Y61777620D01*
X57967619Y61777620D01*
X57824761Y61825239D01*
X57729523Y61920477D01*
X57681904Y62015715D01*
X57634285Y62206191D01*
X57634285Y62349048D01*
X57681904Y62539524D01*
X57729523Y62634762D01*
X57824761Y62730000D01*
X57967619Y62777620D01*
X58062857Y62777620D01*
X58205714Y62730000D01*
X58253333Y62682381D01*
X58586666Y62777620D02*
X59205714Y62777620D01*
X58872380Y62396667D01*
X59015238Y62396667D01*
X59110476Y62349048D01*
X59158095Y62301429D01*
X59205714Y62206191D01*
X59205714Y61968096D01*
X59158095Y61872858D01*
X59110476Y61825239D01*
X59015238Y61777620D01*
X58729523Y61777620D01*
X58634285Y61825239D01*
X58586666Y61872858D01*
X32686666Y42457620D02*
X32686666Y41743334D01*
X32639047Y41600477D01*
X32543809Y41505239D01*
X32400952Y41457620D01*
X32305714Y41457620D01*
X33067619Y42457620D02*
X33686666Y42457620D01*
X33353333Y42076667D01*
X33496190Y42076667D01*
X33591428Y42029048D01*
X33639047Y41981429D01*
X33686666Y41886191D01*
X33686666Y41648096D01*
X33639047Y41552858D01*
X33591428Y41505239D01*
X33496190Y41457620D01*
X33210476Y41457620D01*
X33115238Y41505239D01*
X33067619Y41552858D01*
X38608095Y71667620D02*
X38608095Y70858096D01*
X38655714Y70762858D01*
X38703333Y70715239D01*
X38798571Y70667620D01*
X38989047Y70667620D01*
X39084285Y70715239D01*
X39131904Y70762858D01*
X39179523Y70858096D01*
X39179523Y71667620D01*
X39608095Y71572381D02*
X39655714Y71620000D01*
X39750952Y71667620D01*
X39989047Y71667620D01*
X40084285Y71620000D01*
X40131904Y71572381D01*
X40179523Y71477143D01*
X40179523Y71381905D01*
X40131904Y71239048D01*
X39560476Y70667620D01*
X40179523Y70667620D01*
X25908095Y48807620D02*
X25908095Y47998096D01*
X25955714Y47902858D01*
X26003333Y47855239D01*
X26098571Y47807620D01*
X26289047Y47807620D01*
X26384285Y47855239D01*
X26431904Y47902858D01*
X26479523Y47998096D01*
X26479523Y48807620D01*
X26860476Y48807620D02*
X27479523Y48807620D01*
X27146190Y48426667D01*
X27289047Y48426667D01*
X27384285Y48379048D01*
X27431904Y48331429D01*
X27479523Y48236191D01*
X27479523Y47998096D01*
X27431904Y47902858D01*
X27384285Y47855239D01*
X27289047Y47807620D01*
X27003333Y47807620D01*
X26908095Y47855239D01*
X26860476Y47902858D01*
X30146666Y33567620D02*
X30146666Y32853334D01*
X30099047Y32710477D01*
X30003809Y32615239D01*
X29860952Y32567620D01*
X29765714Y32567620D01*
X30575238Y33472381D02*
X30622857Y33520000D01*
X30718095Y33567620D01*
X30956190Y33567620D01*
X31051428Y33520000D01*
X31099047Y33472381D01*
X31146666Y33377143D01*
X31146666Y33281905D01*
X31099047Y33139048D01*
X30527619Y32567620D01*
X31146666Y32567620D01*
X34648095Y32853334D02*
X35124285Y32853334D01*
X34552857Y32567620D02*
X34886190Y33567620D01*
X35219523Y32567620D01*
X35552857Y33091429D02*
X35886190Y33091429D01*
X36029047Y32567620D02*
X35552857Y32567620D01*
X35552857Y33567620D01*
X36029047Y33567620D01*
X36457619Y32948572D02*
X37219523Y32948572D01*
X37695714Y32567620D02*
X37695714Y33234286D01*
X37695714Y33139048D02*
X37743333Y33186667D01*
X37838571Y33234286D01*
X37981428Y33234286D01*
X38076666Y33186667D01*
X38124285Y33091429D01*
X38124285Y32567620D01*
X38124285Y33091429D02*
X38171904Y33186667D01*
X38267142Y33234286D01*
X38410000Y33234286D01*
X38505238Y33186667D01*
X38552857Y33091429D01*
X38552857Y32567620D01*
X39029047Y32567620D02*
X39029047Y33234286D01*
X39029047Y33567620D02*
X38981428Y33520000D01*
X39029047Y33472381D01*
X39076666Y33520000D01*
X39029047Y33567620D01*
X39029047Y33472381D01*
X39933809Y32615239D02*
X39838571Y32567620D01*
X39648095Y32567620D01*
X39552857Y32615239D01*
X39505238Y32662858D01*
X39457619Y32758096D01*
X39457619Y33043810D01*
X39505238Y33139048D01*
X39552857Y33186667D01*
X39648095Y33234286D01*
X39838571Y33234286D01*
X39933809Y33186667D01*
X40362380Y32567620D02*
X40362380Y33234286D01*
X40362380Y33043810D02*
X40410000Y33139048D01*
X40457619Y33186667D01*
X40552857Y33234286D01*
X40648095Y33234286D01*
X41124285Y32567620D02*
X41029047Y32615239D01*
X40981428Y32662858D01*
X40933809Y32758096D01*
X40933809Y33043810D01*
X40981428Y33139048D01*
X41029047Y33186667D01*
X41124285Y33234286D01*
X41267142Y33234286D01*
X41362380Y33186667D01*
X41410000Y33139048D01*
X41457619Y33043810D01*
X41457619Y32758096D01*
X41410000Y32662858D01*
X41362380Y32615239D01*
X41267142Y32567620D01*
X41124285Y32567620D01*
X41838571Y32615239D02*
X41981428Y32567620D01*
X42219523Y32567620D01*
X42314761Y32615239D01*
X42362380Y32662858D01*
X42410000Y32758096D01*
X42410000Y32853334D01*
X42362380Y32948572D01*
X42314761Y32996191D01*
X42219523Y33043810D01*
X42029047Y33091429D01*
X41933809Y33139048D01*
X41886190Y33186667D01*
X41838571Y33281905D01*
X41838571Y33377143D01*
X41886190Y33472381D01*
X41933809Y33520000D01*
X42029047Y33567620D01*
X42267142Y33567620D01*
X42410000Y33520000D01*
X42838571Y32567620D02*
X42838571Y33567620D01*
X43076666Y33567620D01*
X43219523Y33520000D01*
X43314761Y33424762D01*
X43362380Y33329524D01*
X43410000Y33139048D01*
X43410000Y32996191D01*
X43362380Y32805715D01*
X43314761Y32710477D01*
X43219523Y32615239D01*
X43076666Y32567620D01*
X42838571Y32567620D01*
X43838571Y32948572D02*
X44600476Y32948572D01*
X45552857Y32567620D02*
X45076666Y32567620D01*
X45076666Y33567620D01*
X46362380Y32567620D02*
X45886190Y32567620D01*
X45886190Y33567620D01*
X47267142Y32662858D02*
X47219523Y32615239D01*
X47076666Y32567620D01*
X46981428Y32567620D01*
X46838571Y32615239D01*
X46743333Y32710477D01*
X46695714Y32805715D01*
X46648095Y32996191D01*
X46648095Y33139048D01*
X46695714Y33329524D01*
X46743333Y33424762D01*
X46838571Y33520000D01*
X46981428Y33567620D01*
X47076666Y33567620D01*
X47219523Y33520000D01*
X47267142Y33472381D01*
X47695714Y32567620D02*
X47695714Y33567620D01*
X48267142Y32567620D01*
X48267142Y33567620D01*
X48600476Y33567620D02*
X48933809Y32567620D01*
X49267142Y33567620D01*
X6858095Y42457620D02*
X6858095Y41648096D01*
X6905714Y41552858D01*
X6953333Y41505239D01*
X7048571Y41457620D01*
X7239047Y41457620D01*
X7334285Y41505239D01*
X7381904Y41552858D01*
X7429523Y41648096D01*
X7429523Y42457620D01*
X8334285Y42124286D02*
X8334285Y41457620D01*
X8096190Y42505239D02*
X7858095Y41790953D01*
X8477142Y41790953D01*
X86930666Y92492620D02*
X86930666Y91778334D01*
X86883047Y91635477D01*
X86787809Y91540239D01*
X86644952Y91492620D01*
X86549714Y91492620D01*
X87930666Y91492620D02*
X87359238Y91492620D01*
X87644952Y91492620D02*
X87644952Y92492620D01*
X87549714Y92349762D01*
X87454476Y92254524D01*
X87359238Y92206905D01*
X25233333Y91082858D02*
X25185714Y91035239D01*
X25042857Y90987620D01*
X24947619Y90987620D01*
X24804761Y91035239D01*
X24709523Y91130477D01*
X24661904Y91225715D01*
X24614285Y91416191D01*
X24614285Y91559048D01*
X24661904Y91749524D01*
X24709523Y91844762D01*
X24804761Y91940000D01*
X24947619Y91987620D01*
X25042857Y91987620D01*
X25185714Y91940000D01*
X25233333Y91892381D01*
X26090476Y91654286D02*
X26090476Y90987620D01*
X25852380Y92035239D02*
X25614285Y91320953D01*
X26233333Y91320953D01*
X82981666Y10142620D02*
X82981666Y9428334D01*
X82934047Y9285477D01*
X82838809Y9190239D01*
X82695952Y9142620D01*
X82600714Y9142620D01*
X83886428Y10142620D02*
X83695952Y10142620D01*
X83600714Y10095000D01*
X83553095Y10047381D01*
X83457857Y9904524D01*
X83410238Y9714048D01*
X83410238Y9333096D01*
X83457857Y9237858D01*
X83505476Y9190239D01*
X83600714Y9142620D01*
X83791190Y9142620D01*
X83886428Y9190239D01*
X83934047Y9237858D01*
X83981666Y9333096D01*
X83981666Y9571191D01*
X83934047Y9666429D01*
X83886428Y9714048D01*
X83791190Y9761667D01*
X83600714Y9761667D01*
X83505476Y9714048D01*
X83457857Y9666429D01*
X83410238Y9571191D01*
X91273333Y14617620D02*
X90940000Y15093810D01*
X90701904Y14617620D02*
X90701904Y15617620D01*
X91082857Y15617620D01*
X91178095Y15570000D01*
X91225714Y15522381D01*
X91273333Y15427143D01*
X91273333Y15284286D01*
X91225714Y15189048D01*
X91178095Y15141429D01*
X91082857Y15093810D01*
X90701904Y15093810D01*
X92225714Y14617620D02*
X91654285Y14617620D01*
X91940000Y14617620D02*
X91940000Y15617620D01*
X91844761Y15474762D01*
X91749523Y15379524D01*
X91654285Y15331905D01*
X86701333Y26047620D02*
X86368000Y26523810D01*
X86129904Y26047620D02*
X86129904Y27047620D01*
X86510857Y27047620D01*
X86606095Y27000000D01*
X86653714Y26952381D01*
X86701333Y26857143D01*
X86701333Y26714286D01*
X86653714Y26619048D01*
X86606095Y26571429D01*
X86510857Y26523810D01*
X86129904Y26523810D01*
X87034666Y27047620D02*
X87653714Y27047620D01*
X87320380Y26666667D01*
X87463238Y26666667D01*
X87558476Y26619048D01*
X87606095Y26571429D01*
X87653714Y26476191D01*
X87653714Y26238096D01*
X87606095Y26142858D01*
X87558476Y26095239D01*
X87463238Y26047620D01*
X87177523Y26047620D01*
X87082285Y26095239D01*
X87034666Y26142858D01*
X88987333Y20332620D02*
X88654000Y20808810D01*
X88415904Y20332620D02*
X88415904Y21332620D01*
X88796857Y21332620D01*
X88892095Y21285000D01*
X88939714Y21237381D01*
X88987333Y21142143D01*
X88987333Y20999286D01*
X88939714Y20904048D01*
X88892095Y20856429D01*
X88796857Y20808810D01*
X88415904Y20808810D01*
X89368285Y21237381D02*
X89415904Y21285000D01*
X89511142Y21332620D01*
X89749238Y21332620D01*
X89844476Y21285000D01*
X89892095Y21237381D01*
X89939714Y21142143D01*
X89939714Y21046905D01*
X89892095Y20904048D01*
X89320666Y20332620D01*
X89939714Y20332620D01*
X13208095Y71667620D02*
X13208095Y70858096D01*
X13255714Y70762858D01*
X13303333Y70715239D01*
X13398571Y70667620D01*
X13589047Y70667620D01*
X13684285Y70715239D01*
X13731904Y70762858D01*
X13779523Y70858096D01*
X13779523Y71667620D01*
X14779523Y70667620D02*
X14208095Y70667620D01*
X14493809Y70667620D02*
X14493809Y71667620D01*
X14398571Y71524762D01*
X14303333Y71429524D01*
X14208095Y71381905D01*
X101266666Y38857620D02*
X101266666Y38143334D01*
X101219047Y38000477D01*
X101123809Y37905239D01*
X100980952Y37857620D01*
X100885714Y37857620D01*
X102171428Y38524286D02*
X102171428Y37857620D01*
X101933333Y38905239D02*
X101695238Y38190953D01*
X102314285Y38190953D01*
X65706666Y38857620D02*
X65706666Y38143334D01*
X65659047Y38000477D01*
X65563809Y37905239D01*
X65420952Y37857620D01*
X65325714Y37857620D01*
X66659047Y38857620D02*
X66182857Y38857620D01*
X66135238Y38381429D01*
X66182857Y38429048D01*
X66278095Y38476667D01*
X66516190Y38476667D01*
X66611428Y38429048D01*
X66659047Y38381429D01*
X66706666Y38286191D01*
X66706666Y38048096D01*
X66659047Y37952858D01*
X66611428Y37905239D01*
X66516190Y37857620D01*
X66278095Y37857620D01*
X66182857Y37905239D01*
X66135238Y37952858D01*
M02*
