M48
; DRILL file {KiCad (5.1.9)-1} date 02/04/26 18:39:55
; FORMAT={-:-/ absolute / metric / decimal}
; #@! TF.CreationDate,2026-02-04T18:39:55+09:00
; #@! TF.GenerationSoftware,Kicad,Pcbnew,(5.1.9)-1
FMAT,2
METRIC
T1C0.300
T2C0.800
T3C1.000
T4C3.200
T5C3.200
%
G90
G05
T1
X23.239Y85.957
X28.33Y91.395
X28.695Y92.653
X42.953Y36.242
X51.164Y85.737
X56.317Y83.645
X61.579Y70.315
X65.938Y93.411
X65.938Y78.124
X71.079Y85.566
X71.622Y91.234
X72.198Y92.489
X72.379Y85.863
X72.998Y83.961
X73.068Y84.844
X77.206Y90.666
X77.817Y89.716
X78.641Y93.495
X79.398Y88.572
X79.66Y90.529
X79.78Y77.981
X81.947Y87.48
T2
X6.35Y66.04
X6.35Y50.8
X7.62Y39.37
X7.62Y36.83
X7.62Y34.29
X7.62Y31.75
X7.62Y29.21
X7.62Y26.67
X7.62Y24.13
X7.62Y21.59
X7.62Y19.05
X7.62Y16.51
X7.62Y13.97
X7.62Y11.43
X7.747Y78.74
X7.747Y76.24
X8.89Y66.04
X8.89Y50.8
X10.16Y33.02
X10.16Y30.48
X10.16Y22.86
X10.16Y20.32
X11.43Y81.28
X11.43Y73.66
X11.43Y66.04
X11.43Y50.8
X13.97Y81.28
X13.97Y73.66
X13.97Y66.04
X13.97Y50.8
X16.51Y81.28
X16.51Y73.66
X16.51Y66.04
X16.51Y50.8
X19.05Y81.28
X19.05Y73.66
X19.05Y66.04
X19.05Y50.8
X21.59Y81.28
X21.59Y73.66
X21.59Y66.04
X21.59Y50.8
X22.86Y39.37
X22.86Y36.83
X22.86Y34.29
X22.86Y31.75
X22.86Y29.21
X22.86Y26.67
X22.86Y24.13
X22.86Y21.59
X22.86Y19.05
X22.86Y16.51
X22.86Y13.97
X22.86Y11.43
X24.13Y81.28
X24.13Y73.66
X24.13Y66.04
X24.13Y50.8
X25.768Y89.294
X25.768Y86.794
X26.67Y81.28
X26.67Y73.66
X26.67Y66.04
X26.67Y50.8
X29.21Y66.04
X29.21Y50.8
X31.75Y66.04
X31.75Y50.8
X33.02Y78.74
X33.02Y76.24
X34.29Y66.04
X34.29Y50.8
X36.83Y81.28
X36.83Y73.66
X36.83Y66.04
X36.83Y50.8
X39.37Y81.28
X39.37Y73.66
X39.37Y66.04
X39.37Y50.8
X41.91Y81.28
X41.91Y73.66
X41.91Y66.04
X41.91Y50.8
X44.45Y81.28
X44.45Y73.66
X44.45Y66.04
X44.45Y50.8
X46.99Y81.28
X46.99Y73.66
X46.99Y66.04
X46.99Y50.8
X49.53Y81.28
X49.53Y73.66
X49.53Y66.04
X49.53Y50.8
X52.07Y81.28
X52.07Y73.66
X52.07Y66.04
X52.07Y50.8
X54.61Y66.04
X54.61Y50.8
X58.42Y59.69
X58.42Y57.19
X83.058Y24.13
X85.344Y18.415
X87.63Y12.7
X90.678Y24.13
X92.964Y18.415
X95.25Y12.7
T3
X30.48Y30.099
X30.48Y4.699
X30.48Y2.159
X33.02Y30.099
X34.29Y39.37
X35.56Y30.099
X36.83Y39.37
X38.1Y30.099
X39.37Y39.37
X40.64Y30.099
X41.91Y39.37
X43.18Y30.099
X44.45Y39.37
X45.72Y30.099
X46.99Y39.37
X48.26Y30.099
X50.8Y30.099
X50.8Y4.699
X50.8Y2.159
X64.77Y76.2
X64.77Y73.66
X64.77Y71.12
X64.77Y68.58
X64.77Y66.04
X64.77Y63.5
X64.77Y60.96
X64.77Y58.42
X64.77Y55.88
X64.77Y53.34
X64.77Y50.8
X64.77Y48.26
X64.77Y45.72
X64.77Y43.18
X64.77Y40.64
X67.31Y76.2
X67.31Y73.66
X67.31Y71.12
X67.31Y68.58
X67.31Y66.04
X67.31Y63.5
X67.31Y60.96
X67.31Y58.42
X67.31Y55.88
X67.31Y53.34
X67.31Y50.8
X67.31Y48.26
X67.31Y45.72
X67.31Y43.18
X67.31Y40.64
X78.47Y6.985
X78.47Y3.025
X79.615Y5.005
X80.76Y6.985
X80.76Y3.025
X81.905Y5.005
X83.05Y6.985
X83.05Y3.025
X84.195Y5.005
X85.34Y6.985
X85.34Y3.025
X86.485Y5.005
X87.63Y6.985
X87.63Y3.025
X88.775Y5.005
X100.33Y76.2
X100.33Y73.66
X100.33Y71.12
X100.33Y68.58
X100.33Y66.04
X100.33Y63.5
X100.33Y60.96
X100.33Y58.42
X100.33Y55.88
X100.33Y53.34
X100.33Y50.8
X100.33Y48.26
X100.33Y45.72
X100.33Y43.18
X100.33Y40.64
X102.87Y76.2
X102.87Y73.66
X102.87Y71.12
X102.87Y68.58
X102.87Y66.04
X102.87Y63.5
X102.87Y60.96
X102.87Y58.42
X102.87Y55.88
X102.87Y53.34
X102.87Y50.8
X102.87Y48.26
X102.87Y45.72
X102.87Y43.18
X102.87Y40.64
T4
X70.815Y4.935
X95.815Y4.935
T5
X5.0Y5.0
X60.0Y5.0
X110.0Y5.0
T0
M30
