G04 #@! TF.GenerationSoftware,KiCad,Pcbnew,(5.1.9)-1*
G04 #@! TF.CreationDate,2026-02-04T18:39:53+09:00*
G04 #@! TF.ProjectId,MZ-1500_SD+NRF,4d5a2d31-3530-4305-9f53-442b4e52462e,rev?*
G04 #@! TF.SameCoordinates,PX4395450PY98005a8*
G04 #@! TF.FileFunction,Soldermask,Bot*
G04 #@! TF.FilePolarity,Negative*
%FSLAX46Y46*%
G04 Gerber Fmt 4.6, Leading zero omitted, Abs format (unit mm)*
G04 Created by KiCad (PCBNEW (5.1.9)-1) date 2026-02-04 18:39:53*
%MOMM*%
%LPD*%
G01*
G04 APERTURE LIST*
%ADD10C,3.200000*%
%ADD11C,1.600000*%
%ADD12R,1.700000X1.700000*%
%ADD13O,1.700000X1.700000*%
%ADD14O,1.600000X2.400000*%
%ADD15R,1.600000X2.400000*%
%ADD16R,1.600000X1.600000*%
%ADD17O,1.600000X1.600000*%
%ADD18R,1.780000X10.000000*%
%ADD19C,4.000000*%
G04 APERTURE END LIST*
D10*
X110000000Y5000000D03*
X5000000Y5000000D03*
X60000000Y5000000D03*
D11*
X7747000Y76240000D03*
X7747000Y78740000D03*
X33020000Y78740000D03*
X33020000Y76240000D03*
X58420000Y59690000D03*
X58420000Y57190000D03*
D12*
X46990000Y39370000D03*
D13*
X44450000Y39370000D03*
X41910000Y39370000D03*
X39370000Y39370000D03*
X36830000Y39370000D03*
X34290000Y39370000D03*
D14*
X36830000Y81280000D03*
X52070000Y73660000D03*
X39370000Y81280000D03*
X49530000Y73660000D03*
X41910000Y81280000D03*
X46990000Y73660000D03*
X44450000Y81280000D03*
X44450000Y73660000D03*
X46990000Y81280000D03*
X41910000Y73660000D03*
X49530000Y81280000D03*
X39370000Y73660000D03*
X52070000Y81280000D03*
D15*
X36830000Y73660000D03*
X6350000Y50800000D03*
D14*
X54610000Y66040000D03*
X8890000Y50800000D03*
X52070000Y66040000D03*
X11430000Y50800000D03*
X49530000Y66040000D03*
X13970000Y50800000D03*
X46990000Y66040000D03*
X16510000Y50800000D03*
X44450000Y66040000D03*
X19050000Y50800000D03*
X41910000Y66040000D03*
X21590000Y50800000D03*
X39370000Y66040000D03*
X24130000Y50800000D03*
X36830000Y66040000D03*
X26670000Y50800000D03*
X34290000Y66040000D03*
X29210000Y50800000D03*
X31750000Y66040000D03*
X31750000Y50800000D03*
X29210000Y66040000D03*
X34290000Y50800000D03*
X26670000Y66040000D03*
X36830000Y50800000D03*
X24130000Y66040000D03*
X39370000Y50800000D03*
X21590000Y66040000D03*
X41910000Y50800000D03*
X19050000Y66040000D03*
X44450000Y50800000D03*
X16510000Y66040000D03*
X46990000Y50800000D03*
X13970000Y66040000D03*
X49530000Y50800000D03*
X11430000Y66040000D03*
X52070000Y50800000D03*
X8890000Y66040000D03*
X54610000Y50800000D03*
X6350000Y66040000D03*
D12*
X50800000Y30099000D03*
D13*
X48260000Y30099000D03*
X45720000Y30099000D03*
X43180000Y30099000D03*
X40640000Y30099000D03*
X38100000Y30099000D03*
X35560000Y30099000D03*
X33020000Y30099000D03*
X30480000Y30099000D03*
X30480000Y2159000D03*
X30480000Y4699000D03*
X50800000Y2159000D03*
X50800000Y4699000D03*
D16*
X22860000Y11430000D03*
D17*
X22860000Y13970000D03*
X22860000Y16510000D03*
X7620000Y39370000D03*
X22860000Y19050000D03*
X7620000Y36830000D03*
X22860000Y21590000D03*
X7620000Y34290000D03*
X22860000Y24130000D03*
X7620000Y31750000D03*
X22860000Y26670000D03*
X7620000Y29210000D03*
X22860000Y29210000D03*
X7620000Y26670000D03*
X22860000Y31750000D03*
X7620000Y24130000D03*
X22860000Y34290000D03*
X7620000Y21590000D03*
X22860000Y36830000D03*
X7620000Y19050000D03*
X22860000Y39370000D03*
X7620000Y16510000D03*
X7620000Y13970000D03*
X7620000Y11430000D03*
X10160000Y20320000D03*
X10160000Y22860000D03*
X10160000Y30480000D03*
X10160000Y33020000D03*
D18*
X25764000Y99060000D03*
X28304000Y99060000D03*
X30844000Y99060000D03*
X33384000Y99060000D03*
X35924000Y99060000D03*
X38464000Y99060000D03*
X41004000Y99060000D03*
X43544000Y99060000D03*
X46084000Y99060000D03*
X48624000Y99060000D03*
X51164000Y99060000D03*
X53704000Y99060000D03*
X56244000Y99060000D03*
X58784000Y99060000D03*
X61324000Y99060000D03*
X63864000Y99060000D03*
X66404000Y99060000D03*
X68944000Y99060000D03*
X71484000Y99060000D03*
X74024000Y99060000D03*
X76564000Y99060000D03*
X79104000Y99060000D03*
X81644000Y99060000D03*
X84184000Y99060000D03*
X86724000Y99060000D03*
D16*
X25768300Y89293700D03*
D11*
X25768300Y86793700D03*
D16*
X87630000Y6985000D03*
D11*
X85340000Y6985000D03*
X83050000Y6985000D03*
X80760000Y6985000D03*
X78470000Y6985000D03*
X88775000Y5005000D03*
X86485000Y5005000D03*
X84195000Y5005000D03*
X81905000Y5005000D03*
X79615000Y5005000D03*
X87630000Y3025000D03*
X85340000Y3025000D03*
X83050000Y3025000D03*
X80760000Y3025000D03*
X78470000Y3025000D03*
D19*
X70815000Y4935000D03*
X95815000Y4935000D03*
D11*
X87630000Y12700000D03*
D17*
X95250000Y12700000D03*
X90678000Y24130000D03*
D11*
X83058000Y24130000D03*
X85344000Y18415000D03*
D17*
X92964000Y18415000D03*
D15*
X11430000Y73660000D03*
D14*
X26670000Y81280000D03*
X13970000Y73660000D03*
X24130000Y81280000D03*
X16510000Y73660000D03*
X21590000Y81280000D03*
X19050000Y73660000D03*
X19050000Y81280000D03*
X21590000Y73660000D03*
X16510000Y81280000D03*
X24130000Y73660000D03*
X13970000Y81280000D03*
X26670000Y73660000D03*
X11430000Y81280000D03*
D12*
X102870000Y40640000D03*
D13*
X100330000Y40640000D03*
X102870000Y43180000D03*
X100330000Y43180000D03*
X102870000Y45720000D03*
X100330000Y45720000D03*
X102870000Y48260000D03*
X100330000Y48260000D03*
X102870000Y50800000D03*
X100330000Y50800000D03*
X102870000Y53340000D03*
X100330000Y53340000D03*
X102870000Y55880000D03*
X100330000Y55880000D03*
X102870000Y58420000D03*
X100330000Y58420000D03*
X102870000Y60960000D03*
X100330000Y60960000D03*
X102870000Y63500000D03*
X100330000Y63500000D03*
X102870000Y66040000D03*
X100330000Y66040000D03*
X102870000Y68580000D03*
X100330000Y68580000D03*
X102870000Y71120000D03*
X100330000Y71120000D03*
X102870000Y73660000D03*
X100330000Y73660000D03*
X102870000Y76200000D03*
X100330000Y76200000D03*
X64770000Y76200000D03*
X67310000Y76200000D03*
X64770000Y73660000D03*
X67310000Y73660000D03*
X64770000Y71120000D03*
X67310000Y71120000D03*
X64770000Y68580000D03*
X67310000Y68580000D03*
X64770000Y66040000D03*
X67310000Y66040000D03*
X64770000Y63500000D03*
X67310000Y63500000D03*
X64770000Y60960000D03*
X67310000Y60960000D03*
X64770000Y58420000D03*
X67310000Y58420000D03*
X64770000Y55880000D03*
X67310000Y55880000D03*
X64770000Y53340000D03*
X67310000Y53340000D03*
X64770000Y50800000D03*
X67310000Y50800000D03*
X64770000Y48260000D03*
X67310000Y48260000D03*
X64770000Y45720000D03*
X67310000Y45720000D03*
X64770000Y43180000D03*
X67310000Y43180000D03*
X64770000Y40640000D03*
D12*
X67310000Y40640000D03*
M02*
